<svg width="102" height="73" viewBox="0 0 102 73" fill="none" xmlns="http://www.w3.org/2000/svg">
<path d="M7.28571 0H43.7143C45.6466 0 47.4997 0.769105 48.8661 2.13812C50.2324 3.50714 51 5.36392 51 7.3C51 9.23608 50.2324 11.0929 48.8661 12.4619C47.4997 13.8309 45.6466 14.6 43.7143 14.6H7.28571C5.35342 14.6 3.50027 13.8309 2.13394 12.4619C0.7676 11.0929 0 9.23608 0 7.3C0 5.36392 0.7676 3.50714 2.13394 2.13812C3.50027 0.769105 5.35342 0 7.28571 0ZM58.2857 58.4H94.7143C96.6466 58.4 98.4997 59.1691 99.8661 60.5381C101.232 61.9071 102 63.7639 102 65.7C102 67.6361 101.232 69.4929 99.8661 70.8619C98.4997 72.2309 96.6466 73 94.7143 73H58.2857C56.3534 73 54.5003 72.2309 53.1339 70.8619C51.7676 69.4929 51 67.6361 51 65.7C51 63.7639 51.7676 61.9071 53.1339 60.5381C54.5003 59.1691 56.3534 58.4 58.2857 58.4ZM7.28571 29.2H94.7143C96.6466 29.2 98.4997 29.9691 99.8661 31.3381C101.232 32.7071 102 34.5639 102 36.5C102 38.4361 101.232 40.2929 99.8661 41.6619C98.4997 43.0309 96.6466 43.8 94.7143 43.8H7.28571C5.35342 43.8 3.50027 43.0309 2.13394 41.6619C0.7676 40.2929 0 38.4361 0 36.5C0 34.5639 0.7676 32.7071 2.13394 31.3381C3.50027 29.9691 5.35342 29.2 7.28571 29.2Z" fill="#787777"/>
</svg>
